<svg xmlns="http://www.w3.org/2000/svg" viewBox="0 0 512 512" width="512" height="512" role="img" aria-label="Igloo house built from ice blocks with a penguin sitting inside">
  <defs>
    <linearGradient id="sky" x1="0" y1="0" x2="0" y2="1">
      <stop offset="0" stop-color="#0d2740"/>
      <stop offset="1" stop-color="#1f5686"/>
    </linearGradient>
  </defs>

  <rect width="512" height="512" fill="url(#sky)"/>
  <g fill="#ffffff" opacity=".7">
    <circle cx="64" cy="96" r="3"/><circle cx="452" cy="158" r="2.5"/><circle cx="92" cy="170" r="2"/>
    <circle cx="470" cy="60" r="2"/><circle cx="170" cy="48" r="2"/><circle cx="446" cy="360" r="2"/>
  </g>

  <g fill="none" stroke-width="28" stroke-linecap="round" stroke-linejoin="round">
    <path d="M343 82H401.6V124" stroke="#bfe6f7"/>
    <path d="M54 214L256 77L458 214" stroke="#f7fcff"/>
  </g>

  <g>
    <rect x="84" y="372" width="56" height="34" rx="8" fill="#c3e8f8"/><rect x="89" y="375" width="46" height="4" rx="2" fill="#ffffff" opacity=".55"/>
    <rect x="84" y="334" width="26" height="34" rx="8" fill="#d7f1fb"/><rect x="89" y="337" width="16" height="4" rx="2" fill="#ffffff" opacity=".55"/>
    <rect x="114" y="334" width="26" height="34" rx="8" fill="#b4e0f4"/><rect x="119" y="337" width="16" height="4" rx="2" fill="#ffffff" opacity=".55"/>
    <rect x="84" y="296" width="56" height="34" rx="8" fill="#c3e8f8"/><rect x="89" y="299" width="46" height="4" rx="2" fill="#ffffff" opacity=".55"/>
    <rect x="84" y="258" width="26" height="34" rx="8" fill="#d7f1fb"/><rect x="89" y="261" width="16" height="4" rx="2" fill="#ffffff" opacity=".55"/>
    <rect x="114" y="258" width="26" height="34" rx="8" fill="#b4e0f4"/><rect x="119" y="261" width="16" height="4" rx="2" fill="#ffffff" opacity=".55"/>
    <rect x="84" y="220" width="56" height="34" rx="8" fill="#c3e8f8"/><rect x="89" y="223" width="46" height="4" rx="2" fill="#ffffff" opacity=".55"/>
    <rect x="372" y="372" width="56" height="34" rx="8" fill="#d7f1fb"/><rect x="377" y="375" width="46" height="4" rx="2" fill="#ffffff" opacity=".55"/>
    <rect x="372" y="334" width="26" height="34" rx="8" fill="#b4e0f4"/><rect x="377" y="337" width="16" height="4" rx="2" fill="#ffffff" opacity=".55"/>
    <rect x="402" y="334" width="26" height="34" rx="8" fill="#c3e8f8"/><rect x="407" y="337" width="16" height="4" rx="2" fill="#ffffff" opacity=".55"/>
    <rect x="372" y="296" width="56" height="34" rx="8" fill="#d7f1fb"/><rect x="377" y="299" width="46" height="4" rx="2" fill="#ffffff" opacity=".55"/>
    <rect x="372" y="258" width="26" height="34" rx="8" fill="#b4e0f4"/><rect x="377" y="261" width="16" height="4" rx="2" fill="#ffffff" opacity=".55"/>
    <rect x="402" y="258" width="26" height="34" rx="8" fill="#c3e8f8"/><rect x="407" y="261" width="16" height="4" rx="2" fill="#ffffff" opacity=".55"/>
    <rect x="372" y="220" width="56" height="34" rx="8" fill="#d7f1fb"/><rect x="377" y="223" width="46" height="4" rx="2" fill="#ffffff" opacity=".55"/>
    <rect x="84.0" y="410" width="54.0" height="34" rx="8" fill="#b4e0f4"/><rect x="89.0" y="413" width="44.0" height="4" rx="2" fill="#ffffff" opacity=".55"/>
    <rect x="142.0" y="410" width="54.0" height="34" rx="8" fill="#c3e8f8"/><rect x="147.0" y="413" width="44.0" height="4" rx="2" fill="#ffffff" opacity=".55"/>
    <rect x="200.0" y="410" width="54.0" height="34" rx="8" fill="#d7f1fb"/><rect x="205.0" y="413" width="44.0" height="4" rx="2" fill="#ffffff" opacity=".55"/>
    <rect x="258.0" y="410" width="54.0" height="34" rx="8" fill="#b4e0f4"/><rect x="263.0" y="413" width="44.0" height="4" rx="2" fill="#ffffff" opacity=".55"/>
    <rect x="316.0" y="410" width="54.0" height="34" rx="8" fill="#c3e8f8"/><rect x="321.0" y="413" width="44.0" height="4" rx="2" fill="#ffffff" opacity=".55"/>
    <rect x="374.0" y="410" width="54.0" height="34" rx="8" fill="#d7f1fb"/><rect x="379.0" y="413" width="44.0" height="4" rx="2" fill="#ffffff" opacity=".55"/>
  </g>

  <g>
    <path d="M196 322Q166 360 184 396Q206 392 214 350Z" fill="#1b1f27"/>
    <path d="M316 322Q346 360 328 396Q306 392 298 350Z" fill="#1b1f27"/>
    <ellipse cx="256" cy="352" rx="62" ry="64" fill="#1b1f27"/>
    <circle cx="256" cy="278" r="42" fill="#1b1f27"/>
    <ellipse cx="256" cy="362" rx="40" ry="48" fill="#f6f8fb"/>
    <circle cx="241" cy="270" r="12" fill="#f6f8fb"/>
    <circle cx="271" cy="270" r="12" fill="#f6f8fb"/>
    <circle cx="243" cy="272" r="4.8" fill="#1b1f27"/>
    <circle cx="269" cy="272" r="4.8" fill="#1b1f27"/>
    <path d="M238 288Q256 281 274 288L256 311Z" fill="#f59e0b"/>
    <ellipse cx="222" cy="410" rx="26" ry="10" fill="#f59e0b"/>
    <ellipse cx="290" cy="410" rx="26" ry="10" fill="#f59e0b"/>
  </g>
</svg>
